<svg width="46" height="27" viewBox="0 0 46 27" fill="none" xmlns="http://www.w3.org/2000/svg">
<path d="M12.248 0.763999C14.216 0.763999 16.052 0.895998 17.756 1.16C19.484 1.4 20.72 1.652 21.464 1.916L22.544 2.312V12.608C20.6 11.72 17.936 11.276 14.552 11.276V12.212C17.672 12.452 19.916 13.076 21.284 14.084C22.652 15.092 23.336 16.616 23.336 18.656C23.336 21.104 22.34 23 20.348 24.344C18.356 25.688 15.284 26.36 11.132 26.36C8.756 26.36 6.656 26.228 4.832 25.964C3.008 25.676 1.784 25.4 1.16 25.136L0.188 24.704V15.74C0.404 15.836 0.728 15.968 1.16 16.136C1.592 16.304 2.552 16.52 4.04 16.784C5.552 17.048 7.172 17.18 8.9 17.18V16.316C5.972 16.1 3.764 15.476 2.276 14.444C0.788 13.412 0.044 11.612 0.044 9.044C0.044 6.476 1.064 4.46 3.104 2.996C5.144 1.508 8.192 0.763999 12.248 0.763999ZM24.9346 1.124H45.0946V11.6H37.3186V13.04H45.0946V15.308H37.3186V16.748H45.4186V26H24.9346V1.124Z" fill="white"/>
</svg>
